<svg xmlns="http://www.w3.org/2000/svg" xmlns:xlink="http://www.w3.org/1999/xlink" width="200" height="200" style="">
	<path fill="#C3323E" d="M167.889 106.979C171.103 106.876 181.164 116.13 184.5 118.153C187.238 118.069 189.911 117.714 192.592 117.164C194.241 120.387 196.885 123.518 198.99 126.494C198.352 127.045 195.727 126.907 194.828 126.886C192.618 126.833 189.611 126.541 187.651 125.412C185.244 124.026 181.941 119.889 179.776 117.867C175.886 114.232 171.558 110.816 167.889 106.979Z"/>
	<path fill="#C3323E" d="M118.705 79.0043C121.306 80.1426 126.819 86.5301 128.856 88.6622C132.844 92.8368 142.654 101.721 148.067 103.201C151.537 104.15 154.997 102.192 157.911 100.535Q158.233 103.944 158.666 107.341C156.381 109.733 153.974 112.007 151.705 114.403C154.077 113.321 156.391 112.059 158.714 110.874C159.368 113.251 160.231 115.542 161.111 117.842L165.807 118.936C167.298 119.37 168.867 119.652 170.384 119.995C168.166 122.251 165.965 124.466 163.45 126.394C157.999 120.257 152.373 117.821 146.579 112.817C143.675 110.309 141.154 107.207 138.564 104.379C135.709 101.261 132.737 98.2631 129.857 95.1721C127.774 92.9378 118.624 81.3508 118.705 79.0043Z"/>
	<path fill="#C3323E" d="M59.4468 98.461C59.5035 98.4661 59.5605 98.4687 59.617 98.4763C61.0272 98.6663 63.8801 102.408 64.8347 103.555C63.6297 105.025 62.4525 106.499 61.3315 108.035C62.8665 110.058 64.6269 111.877 66.2055 113.861C68.5719 116.834 70.6708 119.888 73.3318 122.625C67.6288 119.777 60.9336 114.867 54.8813 113.506L54.7025 116.567C53.2216 117.761 51.5279 118.609 49.8295 119.442C51.7376 121.5 53.3465 123.908 54.8694 126.259C49.7195 126.198 44.5744 126.862 39.4162 126.765C37.2753 125.105 35.1502 123.429 32.9073 121.908C33.9784 123.513 34.8657 124.977 35.5213 126.806L32.5582 127.01C30.6523 126.674 29.2793 124.194 28.0019 122.778C26.585 123.147 25.0571 123.277 23.7579 123.988C22.5797 124.633 21.5989 126.553 20.4486 126.788C20.4058 126.797 20.3627 126.804 20.3198 126.812C17.9246 127.293 15.0546 126.845 12.6037 126.793Q6.57631 126.636 0.547575 126.729C4.35859 125.304 8.47375 124.51 12.419 123.524C18.9609 121.888 25.9349 119.932 32.0915 117.175C34.6719 116.02 36.5864 113.766 38.9173 112.22C41.6152 110.43 44.8137 109.473 47.5341 107.674C49.5332 106.352 51.2071 104.52 53.0579 103C55.0615 101.354 57.3056 99.9238 59.4468 98.461Z"/>
	<path fill="#C3323E" d="M107.486 69.8261C107.886 70.3003 107.632 83.9121 108.046 86.1673C108.888 90.7607 114.315 96.2763 116.642 100.691C112.885 98.7098 109.674 95.7852 106.025 93.5987C105.839 96.8215 105.873 99.9967 106.034 103.219C108.948 104.896 112.528 105.213 115.268 107.201C119.416 110.209 121.069 115.591 125.249 118.781C122.894 117.636 120.229 117.124 117.801 116.117C114.638 114.805 112.088 112.599 109.307 110.664C107.505 109.411 104.943 107.626 102.627 108.038L102.517 108.345C105.783 111.833 105.244 113.15 107.394 116.711C108.462 118.479 109.94 119.832 111.413 121.255L114.104 123.926C111.95 125.843 108.749 127.52 105.851 127.817C104.775 127.927 103.679 127.892 102.72 127.353C99.2252 125.389 94.2517 120.473 90.9975 117.7Q78.7653 107.247 66.4161 96.9333C72.1961 91.0112 76.4892 91.4578 82.26 87.4624C84.8362 85.6787 85.9122 82.953 87.8633 80.6376C91.7394 76.0378 101.67 71.1593 107.486 69.8261Z"/>
</svg>
